<svg width="300" height="300" viewBox="0 0 300 300" fill="none" xmlns="http://www.w3.org/2000/svg">
<path d="M62.4683 162.097H115.409L99.2325 119.871C98.8124 118.61 98.1821 116.859 97.3418 114.619C96.5015 112.378 95.5911 109.927 94.6108 107.266C93.7704 104.605 92.8601 101.944 91.8797 99.2826C91.0394 96.4815 90.2691 93.9605 89.5688 91.7197H88.3083C87.468 94.3807 86.4176 97.5319 85.1571 101.173C83.8966 104.815 82.6361 108.316 81.3756 111.677C80.2552 115.039 79.2748 117.77 78.4345 119.871L62.4683 162.097Z" fill="black"/>
<path d="M183.331 162.097H236.271L220.095 119.871C219.675 118.61 219.044 116.859 218.204 114.619C217.364 112.378 216.453 109.927 215.473 107.266C214.633 104.605 213.722 101.944 212.742 99.2826C211.902 96.4815 211.131 93.9605 210.431 91.7197H209.171C208.33 94.3807 207.28 97.5319 206.019 101.173C204.759 104.815 203.498 108.316 202.238 111.677C201.118 115.039 200.137 117.77 199.297 119.871L183.331 162.097Z" fill="black"/>
<path fill-rule="evenodd" clip-rule="evenodd" d="M6.08964 49.3853C0 64.087 0 82.7247 0 120V180C0 217.275 0 235.913 6.08964 250.615C14.2092 270.217 29.7831 285.791 49.3853 293.91C64.087 300 82.7247 300 120 300H180C217.275 300 235.913 300 250.615 293.91C270.217 285.791 285.791 270.217 293.91 250.615C300 235.913 300 217.275 300 180V120C300 82.7247 300 64.087 293.91 49.3853C285.791 29.7831 270.217 14.2092 250.615 6.08964C235.913 0 217.275 0 180 0H120C82.7247 0 64.087 0 49.3853 6.08964C29.7831 14.2092 14.2092 29.7831 6.08964 49.3853ZM17.9312 215.457L74.443 71.3418H104.485L149.979 186.932L195.305 71.3418H225.347L282.069 215.457H256.859L244.044 182.055H175.768L162.953 215.457H135.997L123.182 182.055H54.9054L42.0905 215.457H17.9312Z" fill="black"/>
</svg>
